# xmcd CD database file
#
# Track frame offsets:
#	187
#	21894
#	45092
#
# Disc length: 831 seconds
#
# Revision: 0
# Processed by: cddbd v1.5.1PL0 Copyright (c) Steve Scherf et al.
# Submitted via: CDex 1.51
#
DISCID=15033d03
DTITLE=桃乃未琴 - この夜が明けないのならば
DYEAR=1999
DGENRE=Rock
TTITLE0=この夜が明けないのならば
TTITLE1=鏡
TTITLE2=ハダカの手
EXTD=YEAR: 1999
EXTT0=
EXTT1=
EXTT2=
PLAYORDER=
